# xmcd CD database file
#
# Track frame offsets:
#	150
#	17182
#	33630
#	48162
#	64112
#	88862
#	106167
#	127685
#	145302
#	163440
#	182370
#	204277
#	220802
#	238465
#	257937
#	275675
#	302845
#	319545
#	336400
#
# Disc length: 4762 seconds
#
# Revision: 10
# Processed by: cddbd v1.5.1PL0 Copyright (c) Steve Scherf et al.
# Submitted via: CDex 1.51
#
DISCID=1d129813
DTITLE=オムニバス - ラブ・ライツ３
DYEAR=1900
DGENRE=New Age
TTITLE0=ワイルド・チャイルド
TTITLE1=素直になれなくて
TTITLE2=グッバイ・イエロー・ブリック・ロード
TTITLE3=アイ・ウォント・イット・ザット・ウェイ
TTITLE4=ベンデッド・ニー
TTITLE5=ノット・ア・ガール
TTITLE6=やさしく歌って
TTITLE7=愛はかげろうのように
TTITLE8=変わらぬ想い
TTITLE9=ハート・オブ・マイン
TTITLE10=愛は翼にのって
TTITLE11=永遠に愛されて
TTITLE12=オール・ザ・ラヴ・イン・ザ・ワールド
TTITLE13=セルフィッシュ
TTITLE14=ジャスト・ザ・トゥー・オブ・アス
TTITLE15=Ｉ．Ｇ．Ｙ．
TTITLE16=ラヴィン・ユー
TTITLE17=モナ・リザ
TTITLE18=セイリング
EXTD=
EXTT0=
EXTT1=
EXTT2=
EXTT3=
EXTT4=
EXTT5=
EXTT6=
EXTT7=
EXTT8=
EXTT9=
EXTT10=
EXTT11=
EXTT12=
EXTT13=
EXTT14=
EXTT15=
EXTT16=
EXTT17=
EXTT18=
PLAYORDER=
